<svg width="142" height="42" viewBox="0 0 142 42" fill="none" xmlns="http://www.w3.org/2000/svg" role="img" aria-labelledby="title">
  <title id="title">EduDev</title>
  <rect width="142" height="42" rx="10" fill="#FFFFFF"/>
  <path d="M14 26.5V15.5H27.2V19.1H18.4V21.1H26V24.3H18.4V26.5H27.5V30.1H14V26.5Z" fill="#111922"/>
  <path d="M29.6 13.2L35.2 21L29.6 28.8H25.5L30.7 21L25.5 13.2H29.6Z" fill="#128767"/>
  <path d="M57.7 29.3C54.1 29.3 51.4 26.7 51.4 23C51.4 19.3 54.1 16.8 57.6 16.8C61.1 16.8 63.6 19.2 63.6 22.8V23.8H55.3C55.6 25.3 56.5 26 57.9 26C59 26 59.8 25.5 60.3 24.8L63.2 26.5C62.2 28.2 60.3 29.3 57.7 29.3ZM55.4 21.6H59.7C59.5 20.5 58.7 19.9 57.6 19.9C56.5 19.9 55.7 20.5 55.4 21.6Z" fill="#111922"/>
  <path d="M70 29.3C66.8 29.3 64.5 26.8 64.5 23C64.5 19.2 66.8 16.8 70 16.8C71.6 16.8 72.8 17.4 73.6 18.4V12.5H77.6V29H73.8V27.5C73 28.7 71.7 29.3 70 29.3ZM71.1 25.8C72.6 25.8 73.7 24.7 73.7 23C73.7 21.3 72.6 20.2 71.1 20.2C69.6 20.2 68.6 21.3 68.6 23C68.6 24.7 69.6 25.8 71.1 25.8Z" fill="#111922"/>
  <path d="M86.1 29.3C82.5 29.3 79.8 26.7 79.8 23C79.8 19.3 82.5 16.8 86 16.8C89.5 16.8 92 19.2 92 22.8V23.8H83.7C84 25.3 84.9 26 86.3 26C87.4 26 88.2 25.5 88.7 24.8L91.6 26.5C90.6 28.2 88.7 29.3 86.1 29.3ZM83.8 21.6H88.1C87.9 20.5 87.1 19.9 86 19.9C84.9 19.9 84.1 20.5 83.8 21.6Z" fill="#111922"/>
  <path d="M97.1 29L92.4 17.1H96.7L99.2 24.7L101.8 17.1H105.9L101.2 29H97.1Z" fill="#111922"/>
  <path d="M112.7 29H106.8V13.4H112.7C117.7 13.4 121.1 16.5 121.1 21.2C121.1 25.9 117.7 29 112.7 29ZM111 25.2H112.5C115.2 25.2 116.8 23.7 116.8 21.2C116.8 18.7 115.2 17.2 112.5 17.2H111V25.2Z" fill="#128767"/>
  <path d="M128.8 29.3C125.2 29.3 122.5 26.7 122.5 23C122.5 19.3 125.2 16.8 128.7 16.8C132.2 16.8 134.7 19.2 134.7 22.8V23.8H126.4C126.7 25.3 127.6 26 129 26C130.1 26 130.9 25.5 131.4 24.8L134.3 26.5C133.3 28.2 131.4 29.3 128.8 29.3ZM126.5 21.6H130.8C130.6 20.5 129.8 19.9 128.7 19.9C127.6 19.9 126.8 20.5 126.5 21.6Z" fill="#128767"/>
</svg>
